<svg width="512" height="512" viewBox="0 0 512 512" fill="none" xmlns="http://www.w3.org/2000/svg">
<rect width="512" height="512" rx="256" fill="white"/>
<circle cx="256" cy="256" r="256" fill="black"/>
<circle cx="256" cy="256" r="235" fill="white"/>
<circle cx="256" cy="256" r="225" fill="black"/>
<path d="M67.7607 226.241V219.942C67.7607 218.478 68.5176 217.745 70.0312 217.745H145.031C146.447 217.745 147.155 218.478 147.155 219.942V226.241C147.155 227.804 146.447 228.585 145.031 228.585H113.537V326.803C113.537 328.365 112.78 329.146 111.267 329.146H103.576C102.062 329.146 101.306 328.365 101.306 326.803V228.585H70.0312C68.5176 228.585 67.7607 227.804 67.7607 226.241ZM179.895 317.281H246.325C248.425 317.281 249.475 318.185 249.475 319.991V326.729C249.475 327.413 249.23 327.975 248.742 328.414C248.303 328.805 247.692 329 246.911 329H170.007C168.444 329 167.663 328.219 167.663 326.656V220.016C167.663 218.502 168.444 217.745 170.007 217.745H245.3C247.009 217.745 247.863 218.478 247.863 219.942V227.047C247.863 228.609 247.009 229.391 245.3 229.391H179.895V275.387H233.215C235.168 275.387 236.145 276.192 236.145 277.804V284.469C236.145 285.982 235.168 286.739 233.215 286.739H179.895V317.281ZM305.358 330.538C297.692 330.538 290.173 328.78 282.8 325.265C275.427 321.7 269.86 317.232 266.101 311.861C265.173 310.543 265.319 309.347 266.54 308.272L271.74 303.072C272.766 302.291 273.938 302.584 275.256 303.951C278.576 308.15 283.02 311.69 288.586 314.571C294.152 317.354 299.572 318.746 304.846 318.746C313.049 318.746 319.47 316.988 324.108 313.473C328.698 309.908 330.993 305.001 330.993 298.751C330.993 294.747 329.26 291.134 325.793 287.911C324.328 286.495 322.277 285.104 319.641 283.736C316.613 282.125 314.123 280.929 312.17 280.147L303.161 276.632C298.62 274.972 295.031 273.556 292.395 272.384C289.367 270.968 286.364 269.356 283.386 267.55C280.407 265.646 277.99 263.668 276.135 261.617C272.082 256.881 270.056 251.29 270.056 244.845C270.056 236.3 273.254 229.415 279.65 224.19C285.998 218.917 294.567 216.28 305.358 216.28C311.413 216.28 317.248 217.428 322.863 219.723C328.527 222.018 332.824 224.996 335.754 228.658C336.828 230.025 336.901 231.271 335.974 232.394L331.726 237.228C330.651 238.546 329.187 238.497 327.331 237.081C324.841 234.249 321.569 232.027 317.517 230.416C313.464 228.805 309.24 227.999 304.846 227.999C297.814 227.999 292.272 229.586 288.22 232.76C284.167 235.934 282.141 240.011 282.141 244.991C282.141 249.044 283.923 252.755 287.487 256.124C289.099 257.589 291.125 258.98 293.566 260.299C296.105 261.666 298.522 262.838 300.817 263.814C301.452 264.107 304.26 265.182 309.24 267.037C311.682 267.916 314.147 268.844 316.638 269.82C322.106 271.822 326.623 273.995 330.188 276.339C334.631 279.22 337.902 282.271 340.002 285.494C342.492 289.254 343.737 293.6 343.737 298.531C343.737 308.297 340.246 316.085 333.264 321.896C326.33 327.657 317.028 330.538 305.358 330.538ZM356.774 226.241V219.942C356.774 218.478 357.531 217.745 359.045 217.745H434.045C435.461 217.745 436.169 218.478 436.169 219.942V226.241C436.169 227.804 435.461 228.585 434.045 228.585H402.551V326.803C402.551 328.365 401.794 329.146 400.28 329.146H392.59C391.076 329.146 390.319 328.365 390.319 326.803V228.585H359.045C357.531 228.585 356.774 227.804 356.774 226.241Z" fill="white"/>
</svg>
